# xmcd
#
# Track frame offsets: 
#        150
#        16079
#        29900
#        50333
#        66671
#        84714
#        100999
#        115817
#        130584
#        144671
#
# Disc length: 2188 seconds
#
# Revision: 0
# Processed by: cddbd v1.5.1PL2 Copyright (c) Steve Scherf et al.
# Submitted via: ExactAudioCopy v0.95b1
#
DISCID=8d088a0a
DTITLE=The Nitty Gritty Dirt Band - Jealousy
DYEAR=1981
DGENRE=Bluegrass
TTITLE0=Jealousy
TTITLE1=Too Close For Comfort
TTITLE2=Fire In The Sky
TTITLE3=Love Is The Last Thing
TTITLE4=Crossfire
TTITLE5=Circular Man
TTITLE6=Catch The Next Dream
TTITLE7=So You Run
TTITLE8=Forget It!
TTITLE9=Easy Slow
EXTD=
EXTT0=
EXTT1=
EXTT2=
EXTT3=
EXTT4=
EXTT5=
EXTT6=
EXTT7=
EXTT8=
EXTT9=
PLAYORDER=
